<!--?xml version="1.0" encoding="utf-8"?-->
<!-- Generator: Adobe Illustrator 18.0.0, SVG Export Plug-In . SVG Version: 6.00 Build 0)  -->

<svg version="1.1" id="_x31_0" xmlns="http://www.w3.org/2000/svg" xmlns:xlink="http://www.w3.org/1999/xlink" x="0px" y="0px" viewBox="0 0 512 512" style="width: 512px; height: 512px; opacity: 1;" xml:space="preserve">
<style type="text/css">
	.st0{fill:#374149;}
</style>
<g>
	<path class="st0" d="M495.32,68H422v23.039C422,122.398,396.481,148,365.039,148S308,122.398,308,91.039V68H204v23.039
		C204,122.398,178.477,148,147.039,148C115.598,148,90,122.398,90,91.039V68H16.68C7.465,68,0,75.465,0,84.68v398.64
		C0,492.531,7.465,500,16.68,500h478.64c9.211,0,16.68-7.469,16.68-16.68V84.68C512,75.465,504.531,68,495.32,68z M448,436H64V192
		h384V436z" style="fill: rgb(50, 50, 50);"></path>
	<path class="st0" d="M147.039,116C160.797,116,172,104.718,172,91.039V68V36.961C172,23.282,160.797,12,147.039,12
		C133.278,12,122,23.282,122,36.961V68v23.039C122,104.718,133.278,116,147.039,116z" style="fill: rgb(50, 50, 50);"></path>
	<path class="st0" d="M365.039,116C378.797,116,390,104.718,390,91.039V68V36.961C390,23.282,378.797,12,365.039,12
		C351.278,12,340,23.282,340,36.961V68v23.039C340,104.718,351.278,116,365.039,116z" style="fill: rgb(50, 50, 50);"></path>
	<path class="st0" d="M151.996,411.766h16v-29.449h80v29.449h16v-29.449h80v29.449h16v-29.449h56v-16h-56v-42.219h56v-16h-56
		v-42.218h56v-16h-56v-29.45h-16v29.45h-80v-29.45h-16v29.45h-80v-29.45h-16v29.45h-56v16h56v42.218h-56v16h56v42.219h-56v16h56
		V411.766z M263.996,265.879h80v42.218h-80V265.879z M263.996,324.098h80v42.219h-80V324.098z M167.996,265.879h80v42.218h-80
		V265.879z M167.996,324.098h80v42.219h-80V324.098z" style="fill: rgb(50, 50, 50);"></path>
</g>
</svg>
